<svg width="1920" height="5881" viewBox="0 0 1920 5881" fill="none" xmlns="http://www.w3.org/2000/svg">
<g clip-path="url(#clip0_60_1813)">
<rect width="1920" height="5881" fill="white"/>
<path d="M2042.4 -165H-122.402C-138.474 -165 -153.887 -158.61 -165.251 -147.236C-176.616 -135.863 -183 -120.436 -183 -104.351V1175.35C-183 1191.44 -176.616 1206.86 -165.251 1218.24C-153.887 1229.61 -138.474 1236 -122.402 1236H2042.4C2058.47 1236 2073.89 1229.61 2085.25 1218.24C2096.62 1206.86 2103 1191.44 2103 1175.35V-104.351C2103 -112.316 2101.43 -120.202 2098.39 -127.561C2095.34 -134.919 2090.88 -141.605 2085.25 -147.236C2079.62 -152.868 2072.94 -157.336 2065.59 -160.383C2058.24 -163.431 2050.36 -165 2042.4 -165Z" fill="url(#paint0_linear_60_1813)"/>
<path d="M2050.4 2540H-114.402C-130.474 2540 -145.887 2546.39 -157.251 2557.76C-168.616 2569.14 -175 2584.56 -175 2600.65V3880.35C-175 3896.44 -168.616 3911.86 -157.251 3923.24C-145.887 3934.61 -130.474 3941 -114.402 3941H2050.4C2066.47 3941 2081.89 3934.61 2093.25 3923.24C2104.62 3911.86 2111 3896.44 2111 3880.35V2600.65C2111 2592.68 2109.43 2584.8 2106.39 2577.44C2103.34 2570.08 2098.88 2563.4 2093.25 2557.76C2087.62 2552.13 2080.94 2547.66 2073.59 2544.62C2066.24 2541.57 2058.36 2540 2050.4 2540Z" fill="url(#paint1_linear_60_1813)"/>
<path d="M2042.4 2586H-122.402C-138.474 2586 -153.887 2579.61 -165.251 2568.24C-176.616 2556.86 -183 2541.44 -183 2525.35V1245.65C-183 1229.56 -176.616 1214.14 -165.251 1202.76C-153.887 1191.39 -138.474 1185 -122.402 1185H2042.4C2058.47 1185 2073.89 1191.39 2085.25 1202.76C2096.62 1214.14 2103 1229.56 2103 1245.65V2525.35C2103 2533.32 2101.43 2541.2 2098.39 2548.56C2095.34 2555.92 2090.88 2562.6 2085.25 2568.24C2079.62 2573.87 2072.94 2578.34 2065.59 2581.38C2058.24 2584.43 2050.36 2586 2042.4 2586Z" fill="url(#paint2_linear_60_1813)"/>
<path d="M2042.4 5291H-122.402C-138.474 5291 -153.887 5284.61 -165.251 5273.24C-176.616 5261.86 -183 5246.44 -183 5230.35V3950.65C-183 3934.56 -176.616 3919.14 -165.251 3907.76C-153.887 3896.39 -138.474 3890 -122.402 3890H2042.4C2058.47 3890 2073.89 3896.39 2085.25 3907.76C2096.62 3919.14 2103 3934.56 2103 3950.65V5230.35C2103 5238.32 2101.43 5246.2 2098.39 5253.56C2095.34 5260.92 2090.88 5267.6 2085.25 5273.24C2079.62 5278.87 2072.94 5283.34 2065.59 5286.38C2058.24 5289.43 2050.36 5291 2042.4 5291Z" fill="url(#paint3_linear_60_1813)"/>
<g clip-path="url(#clip1_60_1813)">
<path d="M1527.56 312.02C1548.86 312.02 1566.12 294.778 1566.12 273.51C1566.12 252.242 1548.86 235 1527.56 235C1506.26 235 1489 252.242 1489 273.51C1489 294.778 1506.26 312.02 1527.56 312.02Z" fill="url(#paint4_radial_60_1813)"/>
</g>
<g clip-path="url(#clip2_60_1813)">
<path d="M1450.56 1533.02C1471.86 1533.02 1489.12 1515.78 1489.12 1494.51C1489.12 1473.24 1471.86 1456 1450.56 1456C1429.26 1456 1412 1473.24 1412 1494.51C1412 1515.78 1429.26 1533.02 1450.56 1533.02Z" fill="url(#paint5_radial_60_1813)"/>
</g>
<g clip-path="url(#clip3_60_1813)">
<path d="M396.56 2617.02C417.856 2617.02 435.12 2599.78 435.12 2578.51C435.12 2557.24 417.856 2540 396.56 2540C375.264 2540 358 2557.24 358 2578.51C358 2599.78 375.264 2617.02 396.56 2617.02Z" fill="url(#paint6_radial_60_1813)"/>
</g>
<path d="M891.28 315.916C890.471 313.181 888.333 311.043 885.599 310.234L856.962 301.766C855.958 301.469 855.958 300.046 856.962 299.749L885.599 291.28C888.333 290.471 890.471 288.333 891.28 285.599L899.749 256.962C900.046 255.958 901.469 255.958 901.766 256.962L910.234 285.599C911.043 288.333 913.181 290.471 915.916 291.28L944.552 299.749C945.556 300.046 945.556 301.469 944.552 301.766L915.916 310.234C913.181 311.043 911.043 313.181 910.234 315.916L901.766 344.552C901.469 345.556 900.046 345.556 899.749 344.552L891.28 315.916Z" fill="white" fill-opacity="0.25"/>
<path d="M1710.28 1416.92C1709.47 1414.18 1707.33 1412.04 1704.6 1411.23L1675.96 1402.77C1674.96 1402.47 1674.96 1401.05 1675.96 1400.75L1704.6 1392.28C1707.33 1391.47 1709.47 1389.33 1710.28 1386.6L1718.75 1357.96C1719.05 1356.96 1720.47 1356.96 1720.77 1357.96L1729.23 1386.6C1730.04 1389.33 1732.18 1391.47 1734.92 1392.28L1763.55 1400.75C1764.56 1401.05 1764.56 1402.47 1763.55 1402.77L1734.92 1411.23C1732.18 1412.04 1730.04 1414.18 1729.23 1416.92L1720.77 1445.55C1720.47 1446.56 1719.05 1446.56 1718.75 1445.55L1710.28 1416.92Z" fill="white" fill-opacity="0.25"/>
<path d="M101.28 1547.92C100.472 1545.18 98.3331 1543.04 95.5989 1542.23L66.9625 1533.77C65.9581 1533.47 65.9581 1532.05 66.9625 1531.75L95.5989 1523.28C98.3331 1522.47 100.472 1520.33 101.28 1517.6L109.749 1488.96C110.046 1487.96 111.469 1487.96 111.766 1488.96L120.235 1517.6C121.043 1520.33 123.182 1522.47 125.916 1523.28L154.552 1531.75C155.557 1532.05 155.557 1533.47 154.552 1533.77L125.916 1542.23C123.182 1543.04 121.043 1545.18 120.234 1547.92L111.766 1576.55C111.469 1577.56 110.046 1577.56 109.749 1576.55L101.28 1547.92Z" fill="white" fill-opacity="0.25"/>
<path d="M688.39 1098.81C687.582 1096.07 685.443 1093.93 682.709 1093.12L664.59 1087.77C663.585 1087.47 663.585 1086.05 664.59 1085.75L682.709 1080.39C685.443 1079.58 687.582 1077.44 688.39 1074.71L693.749 1056.59C694.046 1055.58 695.469 1055.58 695.766 1056.59L701.124 1074.71C701.933 1077.44 704.071 1079.58 706.805 1080.39L724.925 1085.75C725.929 1086.05 725.929 1087.47 724.925 1087.77L706.805 1093.12C704.071 1093.93 701.933 1096.07 701.124 1098.81L695.766 1116.92C695.469 1117.93 694.046 1117.93 693.749 1116.92L688.39 1098.81Z" fill="white" fill-opacity="0.25"/>
<path d="M2042.4 5180H-122.402C-138.474 5180 -153.887 5186.39 -165.251 5197.76C-176.616 5209.14 -183 5224.56 -183 5240.65V6520.35C-183 6536.44 -176.616 6551.86 -165.251 6563.24C-153.887 6574.61 -138.474 6581 -122.402 6581H2042.4C2058.47 6581 2073.89 6574.61 2085.25 6563.24C2096.62 6551.86 2103 6536.44 2103 6520.35V5240.65C2103 5232.68 2101.43 5224.8 2098.39 5217.44C2095.34 5210.08 2090.88 5203.4 2085.25 5197.76C2079.62 5192.13 2072.94 5187.66 2065.59 5184.62C2058.24 5181.57 2050.36 5180 2042.4 5180Z" fill="url(#paint7_linear_60_1813)"/>
</g>
<defs>
<linearGradient id="paint0_linear_60_1813" x1="211.9" y1="1223.06" x2="1686.53" y2="-130.004" gradientUnits="userSpaceOnUse">
<stop offset="0.02" stop-color="#45108A"/>
<stop offset="0.29" stop-color="#3D065F"/>
<stop offset="1" stop-color="#10054D"/>
</linearGradient>
<linearGradient id="paint1_linear_60_1813" x1="219.9" y1="3928.06" x2="1694.53" y2="2575" gradientUnits="userSpaceOnUse">
<stop offset="0.02" stop-color="#45108A"/>
<stop offset="0.29" stop-color="#3D065F"/>
<stop offset="1" stop-color="#10054D"/>
</linearGradient>
<linearGradient id="paint2_linear_60_1813" x1="211.9" y1="1197.94" x2="1686.53" y2="2551" gradientUnits="userSpaceOnUse">
<stop offset="0.02" stop-color="#45108A"/>
<stop offset="0.29" stop-color="#3D065F"/>
<stop offset="1" stop-color="#10054D"/>
</linearGradient>
<linearGradient id="paint3_linear_60_1813" x1="211.9" y1="3902.94" x2="1686.53" y2="5256" gradientUnits="userSpaceOnUse">
<stop offset="0.02" stop-color="#45108A"/>
<stop offset="0.29" stop-color="#3D065F"/>
<stop offset="1" stop-color="#10054D"/>
</linearGradient>
<radialGradient id="paint4_radial_60_1813" cx="0" cy="0" r="1" gradientUnits="userSpaceOnUse" gradientTransform="translate(1527.56 273.51) rotate(90) scale(38.51 38.56)">
<stop stop-color="#F20ECA"/>
<stop offset="1" stop-color="#FF58E2" stop-opacity="0"/>
</radialGradient>
<radialGradient id="paint5_radial_60_1813" cx="0" cy="0" r="1" gradientUnits="userSpaceOnUse" gradientTransform="translate(1450.56 1494.51) rotate(90) scale(38.51 38.56)">
<stop stop-color="#F20ECA"/>
<stop offset="1" stop-color="#FF58E2" stop-opacity="0"/>
</radialGradient>
<radialGradient id="paint6_radial_60_1813" cx="0" cy="0" r="1" gradientUnits="userSpaceOnUse" gradientTransform="translate(396.56 2578.51) rotate(90) scale(38.51 38.56)">
<stop stop-color="#F20ECA"/>
<stop offset="1" stop-color="#FF58E2" stop-opacity="0"/>
</radialGradient>
<linearGradient id="paint7_linear_60_1813" x1="211.9" y1="6568.06" x2="1686.53" y2="5215" gradientUnits="userSpaceOnUse">
<stop offset="0.02" stop-color="#45108A"/>
<stop offset="0.29" stop-color="#3D065F"/>
<stop offset="1" stop-color="#10054D"/>
</linearGradient>
<clipPath id="clip0_60_1813">
<rect width="1920" height="5881" fill="white"/>
</clipPath>
<clipPath id="clip1_60_1813">
<rect width="77.13" height="77.03" fill="white" transform="translate(1489 235)"/>
</clipPath>
<clipPath id="clip2_60_1813">
<rect width="77.13" height="77.03" fill="white" transform="translate(1412 1456)"/>
</clipPath>
<clipPath id="clip3_60_1813">
<rect width="77.13" height="77.03" fill="white" transform="translate(358 2540)"/>
</clipPath>
</defs>
</svg>