<svg width="17" height="17" viewBox="0 0 39 39" fill="none" xmlns="http://www.w3.org/2000/svg">
<path fill-rule="evenodd" clip-rule="evenodd" d="M19.4755 0.0507812C8.73972 0.0507812 0.029541 8.76096 0.029541 19.4968C0.029541 30.2326 8.73972 38.9427 19.4755 38.9427C30.1902 38.9427 38.9215 30.2326 38.9215 19.4968C38.9215 8.76096 30.1902 0.0507812 19.4755 0.0507812ZM32.3196 9.01375C34.7138 11.9296 36.0387 15.5766 36.0743 19.3493C35.5265 19.244 30.0428 18.1258 24.5169 18.8226C24.3889 18.5471 24.2835 18.2522 24.1571 17.9573C23.8135 17.1461 23.4482 16.3442 23.0617 15.5525C29.1774 13.0634 31.9614 9.47884 32.3196 9.01375ZM19.4755 2.92068C23.6937 2.92068 27.5537 4.50067 30.4852 7.09509C30.1902 7.51641 27.6801 10.8708 21.775 13.0844C19.0526 8.08683 16.0384 3.99345 15.5734 3.36146C16.8525 3.06278 18.162 2.91431 19.4755 2.91906V2.92068ZM12.4101 4.4796C12.8525 5.07108 15.8051 9.18391 18.568 14.0762C10.8059 16.1439 3.95115 16.1018 3.21382 16.1018C4.28983 10.9551 7.77066 6.67376 12.4101 4.4796ZM2.85569 19.5178V19.0122C3.57357 19.0333 11.6291 19.1386 19.9195 16.6495C20.4041 17.5781 20.8465 18.5261 21.2678 19.4757C21.0571 19.5389 20.8254 19.6021 20.6147 19.6653C12.052 22.4282 7.49517 29.9781 7.11598 30.6117C4.37314 27.5677 2.85537 23.6153 2.85569 19.5178ZM19.4755 36.1166C15.6366 36.1166 12.0941 34.8088 9.28907 32.6163C9.584 32.0038 12.9579 25.5072 22.3227 22.2386C22.3649 22.2176 22.3875 22.2176 22.4281 22.1965C24.7697 28.2491 25.7177 33.3326 25.9721 34.7878C23.9675 35.6531 21.775 36.1166 19.4755 36.1166ZM28.735 33.2694C28.5665 32.2566 27.6801 27.4064 25.507 21.4365C30.7169 20.6149 35.2721 21.9648 35.8425 22.1544C35.1247 26.7728 32.467 30.7592 28.735 33.2694Z" fill="white"/>
</svg>
