<svg width="1920" height="3478" viewBox="0 0 1920 3478" fill="none" xmlns="http://www.w3.org/2000/svg">
<g clip-path="url(#clip0_85_11603)">
<rect width="1920" height="3478" fill="white"/>
<path d="M2075.4 2763H-89.402C-105.474 2763 -120.887 2769.54 -132.251 2781.19C-143.616 2792.84 -150 2808.65 -150 2825.12V4135.88C-150 4152.35 -143.616 4168.16 -132.251 4179.81C-120.887 4191.46 -105.474 4198 -89.402 4198H2075.4C2091.47 4198 2106.89 4191.46 2118.25 4179.81C2129.62 4168.16 2136 4152.35 2136 4135.88V2825.12C2136 2816.96 2134.43 2808.88 2131.39 2801.35C2128.34 2793.81 2123.88 2786.96 2118.25 2781.19C2112.62 2775.43 2105.94 2770.85 2098.59 2767.73C2091.24 2764.61 2083.36 2763 2075.4 2763Z" fill="url(#paint0_linear_85_11603)"/>
<path d="M2075.4 0H-89.402C-105.474 0 -120.887 6.38974 -132.251 17.7635C-143.616 29.1374 -150 44.5636 -150 60.6486V1340.35C-150 1356.44 -143.616 1371.86 -132.251 1383.24C-120.887 1394.61 -105.474 1401 -89.402 1401H2075.4C2091.47 1401 2106.89 1394.61 2118.25 1383.24C2129.62 1371.86 2136 1356.44 2136 1340.35V60.6486C2136 52.6841 2134.43 44.7976 2131.39 37.4394C2128.34 30.0811 2123.88 23.3953 2118.25 17.7635C2112.62 12.1318 2105.94 7.66447 2098.59 4.6166C2091.24 1.56872 2083.36 0 2075.4 0Z" fill="url(#paint1_linear_85_11603)"/>
<path d="M2042.4 2797H-122.402C-138.474 2797 -153.887 2790.45 -165.251 2778.78C-176.616 2767.11 -183 2751.29 -183 2734.79V1422.21C-183 1405.71 -176.616 1389.89 -165.251 1378.22C-153.887 1366.55 -138.474 1360 -122.402 1360H2042.4C2058.47 1360 2073.89 1366.55 2085.25 1378.22C2096.62 1389.89 2103 1405.71 2103 1422.21V2734.79C2103 2742.96 2101.43 2751.05 2098.39 2758.6C2095.34 2766.15 2090.88 2773 2085.25 2778.78C2079.62 2784.56 2072.94 2789.14 2065.59 2792.26C2058.24 2795.39 2050.36 2797 2042.4 2797Z" fill="url(#paint2_linear_85_11603)"/>
<path d="M101.28 1277.92C100.471 1275.18 98.3326 1273.04 95.5984 1272.23L66.962 1263.77C65.9576 1263.47 65.9576 1262.05 66.962 1261.75L95.5984 1253.28C98.3326 1252.47 100.471 1250.33 101.28 1247.6L109.748 1218.96C110.046 1217.96 111.468 1217.96 111.765 1218.96L120.234 1247.6C121.043 1250.33 123.181 1252.47 125.915 1253.28L154.552 1261.75C155.556 1262.05 155.556 1263.47 154.552 1263.77L125.915 1272.23C123.181 1273.04 121.043 1275.18 120.234 1277.92L111.765 1306.55C111.468 1307.56 110.046 1307.56 109.748 1306.55L101.28 1277.92Z" fill="white" fill-opacity="0.25"/>
<g clip-path="url(#clip1_85_11603)">
<path d="M1450.56 1493.02C1471.86 1493.02 1489.12 1475.78 1489.12 1454.51C1489.12 1433.24 1471.86 1416 1450.56 1416C1429.26 1416 1412 1433.24 1412 1454.51C1412 1475.78 1429.26 1493.02 1450.56 1493.02Z" fill="url(#paint3_radial_85_11603)"/>
</g>
<path d="M1799.28 1307.92C1798.47 1305.18 1796.33 1303.04 1793.6 1302.23L1764.96 1293.77C1763.96 1293.47 1763.96 1292.05 1764.96 1291.75L1793.6 1283.28C1796.33 1282.47 1798.47 1280.33 1799.28 1277.6L1807.75 1248.96C1808.05 1247.96 1809.47 1247.96 1809.77 1248.96L1818.23 1277.6C1819.04 1280.33 1821.18 1282.47 1823.92 1283.28L1852.55 1291.75C1853.56 1292.05 1853.56 1293.47 1852.55 1293.77L1823.92 1302.23C1821.18 1303.04 1819.04 1305.18 1818.23 1307.92L1809.77 1336.55C1809.47 1337.56 1808.05 1337.56 1807.75 1336.55L1799.28 1307.92Z" fill="white" fill-opacity="0.25"/>
<path d="M101.28 1237.92C100.471 1235.18 98.3326 1233.04 95.5984 1232.23L66.962 1223.77C65.9576 1223.47 65.9576 1222.05 66.962 1221.75L95.5984 1213.28C98.3326 1212.47 100.471 1210.33 101.28 1207.6L109.748 1178.96C110.046 1177.96 111.468 1177.96 111.765 1178.96L120.234 1207.6C121.043 1210.33 123.181 1212.47 125.915 1213.28L154.552 1221.75C155.556 1222.05 155.556 1223.47 154.552 1223.77L125.915 1232.23C123.181 1233.04 121.043 1235.18 120.234 1237.92L111.765 1266.55C111.468 1267.56 110.046 1267.56 109.748 1266.55L101.28 1237.92Z" fill="white" fill-opacity="0.25"/>
</g>
<defs>
<linearGradient id="paint0_linear_85_11603" x1="244.9" y1="4184.75" x2="1751.78" y2="2834.85" gradientUnits="userSpaceOnUse">
<stop offset="0.02" stop-color="#45108A"/>
<stop offset="0.29" stop-color="#3D065F"/>
<stop offset="1" stop-color="#10054D"/>
</linearGradient>
<linearGradient id="paint1_linear_85_11603" x1="244.9" y1="1388.06" x2="1719.53" y2="34.9965" gradientUnits="userSpaceOnUse">
<stop offset="0.02" stop-color="#45108A"/>
<stop offset="0.29" stop-color="#3D065F"/>
<stop offset="1" stop-color="#10054D"/>
</linearGradient>
<linearGradient id="paint2_linear_85_11603" x1="211.9" y1="1373.27" x2="1720.65" y2="2722.96" gradientUnits="userSpaceOnUse">
<stop offset="0.02" stop-color="#45108A"/>
<stop offset="0.29" stop-color="#3D065F"/>
<stop offset="1" stop-color="#10054D"/>
</linearGradient>
<radialGradient id="paint3_radial_85_11603" cx="0" cy="0" r="1" gradientUnits="userSpaceOnUse" gradientTransform="translate(1450.56 1454.51) rotate(90) scale(38.51 38.56)">
<stop stop-color="#F20ECA"/>
<stop offset="1" stop-color="#FF58E2" stop-opacity="0"/>
</radialGradient>
<clipPath id="clip0_85_11603">
<rect width="1920" height="3478" fill="white"/>
</clipPath>
<clipPath id="clip1_85_11603">
<rect width="77.13" height="77.03" fill="white" transform="translate(1412 1416)"/>
</clipPath>
</defs>
</svg>
